<?xml version="1.0" encoding="UTF-8" standalone="no"?>
<!DOCTYPE svg PUBLIC "-//W3C//DTD SVG 1.1//EN" "http://www.w3.org/Graphics/SVG/1.1/DTD/svg11.dtd">
<svg width="100%" height="100%" viewBox="0 0 1961 383" version="1.1" xmlns="http://www.w3.org/2000/svg" xmlns:xlink="http://www.w3.org/1999/xlink" xml:space="preserve" xmlns:serif="http://www.serif.com/" style="fill-rule:evenodd;clip-rule:evenodd;stroke-linejoin:round;stroke-miterlimit:2;">
    <g transform="matrix(1,0,0,1,-2571.98,-4941.08)">
        <g transform="matrix(1,0,0,1,-17008.3,3979)">
            <g transform="matrix(1,0,0,1,19173.8,-774.004)">
                <g transform="matrix(400,0,0,400,392.1,2031.12)">
                    <path d="M0.336,-0.415C0.336,-0.415 0.288,-0.435 0.288,-0.435C0.217,-0.466 0.142,-0.502 0.142,-0.58C0.142,-0.642 0.187,-0.696 0.271,-0.696C0.357,-0.696 0.413,-0.587 0.455,-0.538L0.485,-0.663C0.456,-0.679 0.372,-0.711 0.284,-0.711C0.138,-0.711 0.044,-0.624 0.044,-0.508C0.044,-0.382 0.153,-0.33 0.22,-0.3L0.268,-0.28C0.336,-0.25 0.422,-0.213 0.422,-0.127C0.422,-0.06 0.372,-0.004 0.282,-0.004C0.198,-0.004 0.116,-0.1 0.073,-0.168L0.036,-0.037C0.065,-0.021 0.176,0.011 0.269,0.011C0.432,0.011 0.519,-0.089 0.519,-0.202C0.519,-0.331 0.413,-0.382 0.336,-0.415Z" style="fill:rgb(4,47,5);fill-rule:nonzero;"/>
                </g>
                <g transform="matrix(400,0,0,400,613.3,2031.12)">
                    <path d="M0.514,-0.461C0.475,-0.504 0.422,-0.528 0.362,-0.528C0.355,-0.528 0.348,-0.528 0.341,-0.527C0.28,-0.519 0.238,-0.488 0.198,-0.448C0.198,-0.448 0.143,-0.389 0.084,-0.458L0.057,-0.458L0.057,0.219L0.198,0.219L0.198,-0.032C0.232,-0.005 0.274,0.011 0.326,0.011C0.353,0.011 0.379,0.007 0.404,-0.001C0.461,-0.019 0.509,-0.058 0.541,-0.111C0.568,-0.154 0.583,-0.208 0.583,-0.269C0.583,-0.348 0.557,-0.415 0.514,-0.461ZM0.4,-0.069C0.379,-0.028 0.348,-0.005 0.308,-0.005C0.255,-0.005 0.215,-0.045 0.198,-0.104L0.198,-0.425C0.217,-0.447 0.236,-0.462 0.256,-0.473C0.256,-0.473 0.256,-0.473 0.256,-0.473C0.276,-0.483 0.296,-0.488 0.315,-0.488C0.387,-0.488 0.433,-0.427 0.433,-0.258C0.433,-0.177 0.422,-0.113 0.4,-0.069Z" style="fill:rgb(4,47,5);fill-rule:nonzero;"/>
                </g>
                <g transform="matrix(400,0,0,400,861.3,2031.12)">
                    <path d="M0.391,-0.517C0.383,-0.516 0.366,-0.517 0.348,-0.517C0.275,-0.512 0.221,-0.457 0.196,-0.363C0.196,-0.362 0.196,-0.362 0.196,-0.361L0.196,-0.384C0.194,-0.42 0.179,-0.452 0.156,-0.476C0.134,-0.499 0.104,-0.514 0.07,-0.517L0.059,-0.517L0.059,-0.001L0.2,-0.001L0.2,-0.332C0.201,-0.334 0.202,-0.337 0.202,-0.34C0.205,-0.356 0.211,-0.37 0.219,-0.382C0.219,-0.383 0.219,-0.383 0.219,-0.383C0.229,-0.398 0.242,-0.41 0.258,-0.419C0.273,-0.428 0.291,-0.433 0.309,-0.433C0.342,-0.433 0.371,-0.418 0.391,-0.395L0.395,-0.394L0.395,-0.517L0.391,-0.517Z" style="fill:rgb(4,47,5);fill-rule:nonzero;"/>
                </g>
                <g transform="matrix(400,0,0,400,1022.9,2031.12)">
                    <path d="M0.116,-0.597C0.166,-0.588 0.209,-0.631 0.199,-0.681C0.194,-0.708 0.172,-0.731 0.144,-0.736C0.094,-0.746 0.051,-0.703 0.06,-0.653C0.066,-0.625 0.088,-0.603 0.116,-0.597ZM0.059,-0.517C0.059,-0.517 0.059,-0.001 0.059,-0.001L0.2,-0.001L0.2,-0.376C0.2,-0.454 0.137,-0.517 0.059,-0.517Z" style="fill:rgb(4,47,5);fill-rule:nonzero;"/>
                </g>
                <g transform="matrix(400,0,0,400,1126.9,2031.12)">
                    <path d="M0.371,-0.53C0.292,-0.53 0.243,-0.495 0.197,-0.449C0.197,-0.449 0.141,-0.389 0.083,-0.459L0.056,-0.459L0.056,-0.002L0.197,-0.002L0.197,-0.431C0.236,-0.47 0.271,-0.486 0.308,-0.486C0.398,-0.486 0.399,-0.395 0.399,-0.36L0.399,-0.002L0.54,-0.002L0.54,-0.346C0.54,-0.472 0.478,-0.53 0.371,-0.53Z" style="fill:rgb(4,47,5);fill-rule:nonzero;"/>
                </g>
                <g transform="matrix(400,0,0,400,1358.9,2031.12)">
                    <path d="M0.369,-0.056C0.338,-0.039 0.312,-0.032 0.291,-0.032C0.224,-0.032 0.224,-0.096 0.224,-0.12L0.224,-0.496L0.234,-0.496C0.278,-0.496 0.302,-0.471 0.36,-0.422L0.362,-0.422L0.361,-0.514L0.224,-0.514L0.224,-0.517L0.223,-0.517L0.223,-0.521C0.221,-0.557 0.206,-0.589 0.182,-0.613C0.159,-0.636 0.128,-0.651 0.094,-0.654L0.082,-0.655L0.082,-0.517L0.019,-0.516L0.019,-0.496L0.082,-0.496L0.082,-0.125C0.082,-0.076 0.096,0.011 0.221,0.011C0.284,0.011 0.33,-0.012 0.376,-0.044L0.369,-0.056Z" style="fill:rgb(4,47,5);fill-rule:nonzero;"/>
                </g>
                <g transform="matrix(400,0,0,400,1518.5,2031.12)">
                    <path d="M0.245,-0.682C0.326,-0.682 0.416,-0.62 0.496,-0.571L0.498,-0.571L0.484,-0.699L0.065,-0.699L0.065,-0L0.218,-0L0.218,-0.344L0.233,-0.344C0.337,-0.344 0.407,-0.327 0.43,-0.304L0.432,-0.304L0.432,-0.396L0.43,-0.396C0.407,-0.374 0.337,-0.361 0.233,-0.361L0.218,-0.361L0.218,-0.682L0.245,-0.682Z" style="fill:rgb(31,186,84);fill-rule:nonzero;"/>
                </g>
                <g transform="matrix(400,0,0,400,1725.3,2031.12)">
                    <path d="M0.16,-0.696C0.134,-0.722 0.099,-0.737 0.059,-0.738L0.059,-0.738L0.059,-0L0.201,-0L0.201,-0.6C0.2,-0.638 0.184,-0.672 0.16,-0.696Z" style="fill:rgb(31,186,84);fill-rule:nonzero;"/>
                </g>
                <g transform="matrix(400,0,0,400,1829.7,2031.12)">
                    <path d="M0.572,-0.344C0.523,-0.501 0.383,-0.564 0.233,-0.517C0.081,-0.469 -0.001,-0.33 0.048,-0.173C0.098,-0.016 0.238,0.047 0.387,0C0.538,-0.047 0.622,-0.187 0.572,-0.344ZM0.388,-0.014C0.311,0.01 0.236,-0.075 0.19,-0.223C0.144,-0.369 0.151,-0.477 0.232,-0.503C0.31,-0.527 0.385,-0.441 0.431,-0.292C0.477,-0.148 0.468,-0.039 0.388,-0.014Z" style="fill:rgb(31,186,84);fill-rule:nonzero;"/>
                </g>
                <g transform="matrix(400,0,0,400,2068.9,2031.12)">
                    <path d="M0.639,-0.517C0.636,-0.456 0.656,-0.37 0.596,-0.223L0.578,-0.182L0.445,-0.517L0.44,-0.517L0.303,-0.179L0.189,-0.455C0.173,-0.492 0.136,-0.517 0.095,-0.517L0.011,-0.517L0.235,0.019L0.24,0.019L0.377,-0.314L0.509,0.019L0.514,0.019L0.612,-0.217C0.672,-0.36 0.704,-0.436 0.746,-0.517L0.639,-0.517L0.639,-0.517Z" style="fill:rgb(31,186,84);fill-rule:nonzero;"/>
                </g>
            </g>
        </g>
    </g>
</svg>
